PathFileType	4	(X/Y/Z)	/Users/itak/Documents/Research/Walk-IL/dataset/trc/00053_00006.trc
DataRate	CameraRate	NumFrames	NumMarkers	Units	OrigDataRate	OrigDataStartFrame	OrigNumFrames
100.000000	100.000000	4	53	mm	100.000000	393	525
Frame#	Time	RPSI			LPSI			L3			STRN			T10			C7			CLAV			RBAK			LBAK			LSHO			LUPA			LAEL			LAOL			LWTS			LWPS			LFRA			LHPS			RSHO			RUPA			RAEL			RAOL			RWTS			RWPS			RFRA			RIFD			RHTS			RHPS			RBHD			LFHD			RFHD			LBHD			LHIP			RHIP			RASI			LASI			LKNE			LTHI			LANK			LTIP			LTOE			LMT1			LMT5			LHEE			RKNE			RTHI			RANK			RTIP			RTOE			RMT1			RMT5			RHEE			LHTS			LIFD			
		X1	Y1	Z1	X2	Y2	Z2	X3	Y3	Z3	X4	Y4	Z4	X5	Y5	Z5	X6	Y6	Z6	X7	Y7	Z7	X8	Y8	Z8	X9	Y9	Z9	X10	Y10	Z10	X11	Y11	Z11	X12	Y12	Z12	X13	Y13	Z13	X14	Y14	Z14	X15	Y15	Z15	X16	Y16	Z16	X17	Y17	Z17	X18	Y18	Z18	X19	Y19	Z19	X20	Y20	Z20	X21	Y21	Z21	X22	Y22	Z22	X23	Y23	Z23	X24	Y24	Z24	X25	Y25	Z25	X26	Y26	Z26	X27	Y27	Z27	X28	Y28	Z28	X29	Y29	Z29	X30	Y30	Z30	X31	Y31	Z31	X32	Y32	Z32	X33	Y33	Z33	X34	Y34	Z34	X35	Y35	Z35	X36	Y36	Z36	X37	Y37	Z37	X38	Y38	Z38	X39	Y39	Z39	X40	Y40	Z40	X41	Y41	Z41	X42	Y42	Z42	X43	Y43	Z43	X44	Y44	Z44	X45	Y45	Z45	X46	Y46	Z46	X47	Y47	Z47	X48	Y48	Z48	X49	Y49	Z49	X50	Y50	Z50	X51	Y51	Z51	X52	Y52	Z52	X53	Y53	Z53	

394	3.93	-759.7999877929688	1032.069458007812	-141.7066192626953	-781.3584594726562	1025.323364257812	-316.9417724609375	-762.393310546875	1087.914306640625	-232.2278594970703	-486.4685974121094	1260.254760742188	-253.1859741210938	-759.95654296875	1222.22802734375	-237.9799499511719	-677.6202392578125	1482.307006835938	-249.3596649169922	-506.204345703125	1377.14501953125	-255.1081085205078	-747.8663330078125	1350.238891601562	-168.7134399414062	-706.1989135742188	1446.999267578125	-349.39599609375	-604.99072265625	1443.43408203125	-424.6497497558594	-632.8491821289062	1321.539794921875	-504.7499389648438	-624.0913696289062	1109.798217773438	-542.197265625	-681.4879150390625	1090.380004882812	-454.1435241699219	-533.322998046875	865.5359497070312	-502.4603881835938	-596.359619140625	859.2809448242188	-557.9611206054688	-606.2258911132812	1001.1767578125	-558.8421020507812	-563.7564697265625	777.34423828125	-561.1819458007812	-608.7825927734375	1441.651977539062	-78.30611419677734	-622.0484008789062	1376.126098632812	-13.36792373657227	-667.0125122070312	1121.444580078125	47.28506469726562	-652.4061889648438	1088.823364257812	-45.70863342285156	-505.2123107910156	880.6163940429688	15.23487377166748	-572.0706787109375	858.708984375	69.84304046630859	-650.9246826171875	1038.995727539062	62.08618545532227	-487.5711364746094	695.0506591796875	-4.187127590179443	-471.5945739746094	780.7203979492188	17.22578239440918	-525.91748046875	773.1142578125	72.26631164550781	-617.3276977539062	1663.552612304688	-311.3009338378906	-452.9602355957031	1668.87890625	-171.5672149658203	-439.8212585449219	1679.370971679688	-296.3695373535156	-622.556884765625	1644.205932617188	-174.5387878417969	-682.0818481445312	959.1866455078125	-411.4834594726562	-699.8438720703125	952.7950439453125	-67.27440643310547	-574.0497436523438	958.1531982421875	-93.41567230224609	-570.1051025390625	959.4070434570312	-358.2576293945312	-518.4813842773438	513.974365234375	-354.4985961914062	-581.3263549804688	641.11865234375	-397.554931640625	-561.53955078125	43.98234176635742	-355.8899230957031	-540.5062255859375	263.2899780273438	-368.22900390625	-359.1253356933594	48.11746597290039	-350.3475646972656	-404.4850158691406	48.05629730224609	-296.6159362792969	-457.6234436035156	36.98229598999023	-395.1545715332031	-614.0194091796875	45.12739181518555	-278.9913024902344	-701.8060913085938	505.7384033203125	-90.82744598388672	-645.7159423828125	771.69091796875	-65.54075622558594	-1004.218444824219	110.3770980834961	-82.39026641845703	-773.6491088867188	399.304931640625	-79.11160278320312	-819.2537231445312	43.41414260864258	-131.6645660400391	-870.0940551757812	56.68613433837891	-167.4451293945312	-892.4815673828125	60.40335083007812	-71.26763153076172	-1045.331909179688	139.1954498291016	-136.3435974121094	-511.4911499023438	784.045654296875	-512.293212890625	-526.807861328125	677.8529052734375	-492.9809875488281	
395	3.94	-768.9806518554688	1031.137084960938	-139.579833984375	-789.9817504882812	1024.630615234375	-314.9797668457031	-771.1687622070312	1087.142211914062	-229.9451141357422	-494.7695922851562	1258.860229492188	-250.7627410888672	-768.2178344726562	1221.391235351562	-235.4227600097656	-685.4763793945312	1481.329711914062	-246.9213409423828	-514.21875	1375.806884765625	-252.81494140625	-755.8795776367188	1349.43408203125	-166.1048889160156	-714.191162109375	1445.972534179688	-346.9060974121094	-613.0819702148438	1442.129516601562	-422.2522888183594	-641.2941284179688	1320.25341796875	-502.2150573730469	-632.7777099609375	1108.572265625	-539.9765625	-689.8468627929688	1089.055908203125	-451.7320251464844	-541.2178955078125	864.64013671875	-500.3883361816406	-604.4241333007812	858.0736083984375	-555.5677490234375	-614.7615356445312	999.9526977539062	-556.635498046875	-571.6558227539062	776.2156982421875	-558.7853393554688	-616.4763793945312	1440.592895507812	-75.91807556152344	-629.5885620117188	1375.050903320312	-10.92570781707764	-673.929931640625	1120.239379882812	50.286376953125	-659.6284790039062	1087.610961914062	-42.75449752807617	-510.3747863769531	880.7877807617188	16.99521827697754	-576.800048828125	858.0328979492188	71.82183074951172	-657.2911987304688	1037.7578125	64.96773529052734	-491.0615844726562	695.444580078125	-3.080392837524414	-475.8527221679688	781.2051391601562	18.55674362182617	-529.7627563476562	772.9146728515625	73.66330718994141	-625.2538452148438	1662.278686523438	-308.9968566894531	-460.6313781738281	1667.806640625	-169.6296539306641	-447.7561340332031	1678.21875	-294.4445190429688	-630.23828125	1643.018798828125	-172.240966796875	-690.1442260742188	958.7334594726562	-409.2798156738281	-709.3494873046875	951.6393432617188	-65.05403900146484	-583.4325561523438	956.8535766601562	-90.76267242431641	-578.567626953125	958.8041381835938	-355.5623168945312	-524.250244140625	514.4977416992188	-353.2196350097656	-587.5908203125	641.2757568359375	-396.0768127441406	-561.8953857421875	43.81042861938477	-356.106201171875	-543.6390991210938	263.7786560058594	-367.8275451660156	-359.6954956054688	50.09818649291992	-350.7020568847656	-404.9942321777344	49.62763977050781	-296.8454284667969	-457.8333129882812	37.12506866455078	-395.1719055175781	-614.4309692382812	44.88980102539062	-279.1646118164062	-714.0975952148438	505.1556701660156	-89.54859161376953	-656.179931640625	770.6688842773438	-63.26573944091797	-1008.914428710938	103.9804611206055	-82.32498931884766	-784.5209350585938	397.8236999511719	-78.06690216064453	-820.149658203125	43.66853332519531	-131.6172637939453	-872.1401977539062	56.00539398193359	-167.1539611816406	-895.119873046875	58.54190063476562	-70.99031066894531	-1051.242919921875	131.8274383544922	-136.1846466064453	-519.0028686523438	783.3564453125	-510.1327209472656	-534.0113525390625	676.9998168945312	-490.6585693359375	
396	3.95	-778.2781982421875	1030.270141601562	-137.4514312744141	-798.7422485351562	1023.923950195312	-313.010986328125	-780.0362548828125	1086.452880859375	-227.6998291015625	-503.1579284667969	1257.500244140625	-248.2320251464844	-776.5817260742188	1220.658813476562	-232.8991394042969	-693.3563232421875	1480.421752929688	-244.4782867431641	-522.2919921875	1374.508178710938	-250.4360046386719	-763.9742431640625	1348.716430664062	-163.5255737304688	-722.1767578125	1445.013549804688	-344.4258117675781	-621.1439208984375	1440.831665039062	-419.8184814453125	-649.6737060546875	1318.955810546875	-499.6259765625	-641.3634643554688	1107.334228515625	-537.669921875	-698.1907958984375	1087.724975585938	-449.2750549316406	-549.0817260742188	863.7291259765625	-498.1742553710938	-612.4100952148438	856.855712890625	-553.0755004882812	-623.2145385742188	998.7169799804688	-554.32763671875	-579.4652099609375	775.0842895507812	-556.2786254882812	-624.2679443359375	1439.58642578125	-73.47296142578125	-637.2814331054688	1374.023681640625	-8.439854621887207	-681.0164184570312	1119.0615234375	53.29808044433594	-667.04345703125	1086.438232421875	-39.80509567260742	-515.7574462890625	880.980224609375	18.79719543457031	-581.73828125	857.3814697265625	73.82289886474609	-663.8395385742188	1036.558959960938	67.84815979003906	-494.7972717285156	695.8890991210938	-1.978170275688171	-480.3565979003906	781.7321166992188	19.90452766418457	-533.846435546875	772.7406005859375	75.07456207275391	-633.1763916015625	1661.054809570312	-306.6614990234375	-468.2874145507812	1666.773071289062	-167.6484527587891	-455.6766357421875	1677.1015625	-292.4825744628906	-637.9085083007812	1641.882202148438	-169.9044036865234	-698.4148559570312	958.2240600585938	-407.0712280273438	-718.9541015625	950.5872192382812	-62.83127975463867	-592.9398803710938	955.6751708984375	-88.07958221435547	-587.189208984375	958.18212890625	-352.8486633300781	-530.2522583007812	514.9747924804688	-351.8883056640625	-594.0996704101562	641.3741455078125	-394.5257873535156	-562.3113403320312	43.63868713378906	-356.3116455078125	-547.0028686523438	264.2909851074219	-367.3927307128906	-360.3692016601562	52.52497863769531	-351.0042114257812	-405.6258850097656	51.58840942382812	-297.0314636230469	-458.0581970214844	37.33874893188477	-395.1195373535156	-614.9174194335938	44.6025276184082	-279.3436279296875	-725.5401000976562	504.5529479980469	-88.27238464355469	-666.419677734375	769.7796020507812	-60.98108673095703	-1013.075439453125	98.10312652587891	-82.41579437255859	-794.5887451171875	396.37353515625	-77.08911895751953	-820.8292236328125	43.75660705566406	-131.5902557373047	-873.8836669921875	55.49619674682617	-166.8629913330078	-897.3634033203125	57.15068435668945	-70.72869873046875	-1056.518920898438	124.9102630615234	-136.2499847412109	-526.4830932617188	782.662353515625	-507.8193969726562	-541.1777954101562	676.1376953125	-488.2279663085938	
397	3.96	-787.6336669921875	1029.504516601562	-135.3340759277344	-807.6110229492188	1023.228088378906	-311.030517578125	-788.9649047851562	1085.853515625	-225.4953155517578	-511.6119384765625	1256.205932617188	-245.6103210449219	-785.0341796875	1220.042358398438	-230.4130706787109	-701.2528686523438	1479.596801757812	-242.0336608886719	-530.416015625	1373.277099609375	-247.9768524169922	-772.1326904296875	1348.092163085938	-160.9826202392578	-730.1533813476562	1444.143432617188	-341.9582824707031	-629.1732788085938	1439.57373046875	-417.354248046875	-657.9859008789062	1317.679565429688	-496.9910278320312	-649.8394165039062	1106.114868164062	-535.2699584960938	-706.4976806640625	1086.421752929688	-446.7602844238281	-556.916259765625	862.8200073242188	-495.81982421875	-620.3281860351562	855.6594848632812	-550.4926147460938	-631.5746459960938	997.5023803710938	-551.9143676757812	-587.2014770507812	773.9824829101562	-553.6759033203125	-632.1574096679688	1438.65380859375	-70.981201171875	-645.1240234375	1373.067138671875	-5.91899585723877	-688.2627563476562	1117.936767578125	56.30683898925781	-674.6326293945312	1085.334228515625	-36.87451171875	-521.3680419921875	881.203857421875	20.63426971435547	-586.9032592773438	856.7760620117188	75.84516906738281	-670.5707397460938	1035.423950195312	70.71437835693359	-498.8049011230469	696.3922119140625	-0.8686043620109558	-485.1241455078125	782.3040771484375	21.27298736572266	-538.1959838867188	772.6094970703125	76.51337432861328	-641.0872192382812	1659.903930664062	-304.3057250976562	-475.9226684570312	1665.78857421875	-165.6288299560547	-463.5706787109375	1676.0341796875	-290.4877319335938	-645.5574951171875	1640.815063476562	-167.5373687744141	-706.9010620117188	957.675048828125	-404.8674011230469	-728.5969848632812	949.6723022460938	-60.61335372924805	-602.493408203125	954.6386108398438	-85.39829254150391	-595.9551391601562	957.5433959960938	-350.148193359375	-536.5047607421875	515.4044799804688	-350.5274047851562	-600.8941650390625	641.4139404296875	-392.9252014160156	-562.7801513671875	43.47099685668945	-356.4844360351562	-550.629150390625	264.8257141113281	-366.9209899902344	-361.1671447753906	55.45473480224609	-351.1968078613281	-406.4083251953125	53.99068069458008	-297.1351928710938	-458.3179016113281	37.67710113525391	-394.9656066894531	-615.4782104492188	44.23550796508789	-279.5202941894531	-736.1854858398438	503.9431762695312	-86.97274017333984	-676.4242553710938	769.0488891601562	-58.70485305786133	-1016.723510742188	92.69789886474609	-82.68341827392578	-803.9219360351562	394.975830078125	-76.16130065917969	-821.3689575195312	43.73157119750977	-131.5841369628906	-875.3566284179688	55.06513214111328	-166.6101531982422	-899.2659301757812	56.08022308349609	-70.52540588378906	-1061.1513671875	118.4164199829102	-136.5653533935547	-533.9573974609375	781.9716796875	-505.3549194335938	-548.3286743164062	675.2864379882812	-485.6930541992188	
